<svg version="1.1" id="Layer_1" xmlns="http://www.w3.org/2000/svg" xmlns:xlink="http://www.w3.org/1999/xlink" x="0px" y="0px"
	 width="100%" viewBox="0 0 136 140" enable-background="new 0 0 136 140" xml:space="preserve">
<path fill="#F8F7F5" opacity="1.000000" stroke="none" 
	d="
M83.000000,141.000000 
	C55.333332,141.000000 28.166666,141.000000 1.000000,141.000000 
	C1.000000,94.333336 1.000000,47.666668 1.000000,1.000000 
	C46.333332,1.000000 91.666664,1.000000 137.000000,1.000000 
	C137.000000,47.666668 137.000000,94.333336 137.000000,141.000000 
	C119.166664,141.000000 101.333336,141.000000 83.000000,141.000000 
M70.208504,31.931164 
	C66.666656,31.176416 63.156082,30.187817 59.577305,29.709265 
	C47.137695,28.045853 36.249218,31.494085 28.524481,41.509125 
	C21.428583,50.708881 21.351149,61.124153 25.838478,71.743851 
	C26.492474,73.291595 26.405695,75.585045 25.764683,77.170845 
	C23.267160,83.349464 22.178526,89.586212 23.647221,96.164268 
	C26.702423,109.848068 39.566139,119.952614 54.811646,118.734695 
	C66.653160,117.788704 78.319450,116.348129 90.090050,118.875900 
	C91.517166,119.182381 93.078979,118.957245 94.570038,118.855888 
	C115.479271,117.434723 128.730942,96.472069 120.096436,77.969360 
	C118.619164,74.803726 118.780327,72.803825 120.189400,69.921577 
	C125.827423,58.389072 121.588364,43.061485 111.181519,35.720898 
	C99.421776,27.426033 86.896408,28.257679 73.271675,32.128693 
	C72.505165,32.148201 71.738663,32.167713 70.208504,31.931164 
z"/>
<path fill="#AA9E93" opacity="1.000000" stroke="none" 
	d="
M74.032417,32.236897 
	C86.896408,28.257679 99.421776,27.426033 111.181519,35.720898 
	C121.588364,43.061485 125.827423,58.389072 120.189400,69.921577 
	C118.780327,72.803825 118.619164,74.803726 120.096436,77.969360 
	C128.730942,96.472069 115.479271,117.434723 94.570038,118.855888 
	C93.078979,118.957245 91.517166,119.182381 90.090050,118.875900 
	C78.319450,116.348129 66.653160,117.788704 54.811646,118.734695 
	C39.566139,119.952614 26.702423,109.848068 23.647221,96.164268 
	C22.178526,89.586212 23.267160,83.349464 25.764683,77.170845 
	C26.405695,75.585045 26.492474,73.291595 25.838478,71.743851 
	C21.351149,61.124153 21.428583,50.708881 28.524481,41.509125 
	C36.249218,31.494085 47.137695,28.045853 59.577305,29.709265 
	C63.156082,30.187817 66.666656,31.176416 70.516998,32.401905 
	C67.549400,34.250877 64.273315,35.629108 60.541618,36.955215 
	C52.562927,36.214581 45.628483,37.683620 39.655880,42.560844 
	C32.076523,48.750145 32.158569,57.099907 32.999138,66.108078 
	C32.023716,71.730392 30.374105,77.008774 33.822609,82.356262 
	C31.319540,91.920532 33.155518,100.077843 40.270824,106.401154 
	C46.067886,111.552971 53.385296,112.471474 61.301170,112.015434 
	C69.212708,114.963997 76.704979,114.828308 84.614784,111.905548 
	C89.598793,111.324631 94.358574,111.403610 98.647697,110.021729 
	C110.794456,106.108238 116.450233,92.679344 111.016251,81.316086 
	C111.009392,76.275948 111.007500,71.680496 111.299004,66.833847 
	C114.359474,58.159237 112.940445,50.645050 106.887520,44.024887 
	C100.328682,36.851410 91.999702,36.062550 82.874527,36.864346 
	C79.782539,35.119019 76.907478,33.677959 74.032417,32.236897 
z"/>
<path fill="#AFA59A" opacity="1.000000" stroke="none" 
	d="
M60.997227,37.007339 
	C64.273315,35.629108 67.549400,34.250877 70.898819,32.529934 
	C71.738663,32.167713 72.505165,32.148201 73.652046,32.182793 
	C76.907478,33.677959 79.782539,35.119019 83.087112,37.106453 
	C86.078674,39.419254 88.640739,41.185680 90.780197,42.965904 
	C87.669556,42.301754 85.010132,41.443081 82.283112,41.011246 
	C80.549126,40.736660 78.714775,41.095913 76.552429,41.110184 
	C73.797539,41.058907 71.415657,41.068394 68.789070,40.792137 
	C65.835442,40.919353 63.135258,41.409206 60.414528,41.718166 
	C58.608246,41.923279 56.772583,41.869629 55.139526,41.660343 
	C57.218395,39.928364 59.107811,38.467854 60.997227,37.007339 
z"/>
<path fill="#F6F5F3" opacity="1.000000" stroke="none" 
	d="
M60.905281,111.958847 
	C53.385296,112.471474 46.067886,111.552971 40.270824,106.401154 
	C33.155518,100.077843 31.319540,91.920532 34.186722,82.313950 
	C35.300713,81.970207 36.021652,82.084839 36.967190,82.465866 
	C39.121540,83.523148 41.051289,84.314034 43.213036,85.381546 
	C43.998760,87.442871 44.552486,89.227570 45.100151,91.389503 
	C46.136795,99.760895 51.994022,103.935295 58.172859,108.273247 
	C59.212540,109.678680 60.058910,110.818764 60.905281,111.958847 
z"/>
<path fill="#F6F5F3" opacity="1.000000" stroke="none" 
	d="
M111.021217,81.760773 
	C116.450233,92.679344 110.794456,106.108238 98.647697,110.021729 
	C94.358574,111.403610 89.598793,111.324631 84.643768,111.578171 
	C86.281029,109.534111 88.328407,107.824509 90.676712,106.027191 
	C95.816536,102.454063 100.004364,98.147995 100.582771,92.117462 
	C100.979347,87.982674 102.266151,85.487053 106.329018,83.981262 
	C108.103645,83.146034 109.562431,82.453407 111.021217,81.760773 
z"/>
<path fill="#F6F5F3" opacity="1.000000" stroke="none" 
	d="
M91.202789,42.952110 
	C88.640739,41.185680 86.078674,39.419254 83.304031,37.410721 
	C91.999702,36.062550 100.328682,36.851410 106.887520,44.024887 
	C112.940445,50.645050 114.359474,58.159237 110.999863,66.663979 
	C108.608345,65.795876 106.809364,64.846436 104.769043,63.640583 
	C99.611313,62.970974 101.770882,58.400791 100.194611,55.641338 
	C97.192413,51.158489 94.197601,47.055298 91.202789,42.952110 
z"/>
<path fill="#F6F5F3" opacity="1.000000" stroke="none" 
	d="
M60.541618,36.955215 
	C59.107811,38.467854 57.218395,39.928364 54.841743,41.813583 
	C49.003498,47.366993 43.791431,52.564259 45.061333,61.212608 
	C45.017281,61.443390 44.974854,61.910931 44.651741,62.050186 
	C41.821209,63.406048 39.313793,64.622650 36.519566,65.909134 
	C35.218811,65.887840 34.204865,65.796684 33.190922,65.705536 
	C32.158569,57.099907 32.076523,48.750145 39.655880,42.560844 
	C45.628483,37.683620 52.562927,36.214581 60.541618,36.955215 
z"/>
<path fill="#AFA59A" opacity="1.000000" stroke="none" 
	d="
M90.375778,106.114906 
	C88.328407,107.824509 86.281029,109.534111 84.204666,111.571091 
	C76.704979,114.828308 69.212708,114.963997 61.301170,112.015434 
	C60.058910,110.818764 59.212540,109.678680 58.501335,108.135262 
	C62.455231,107.807190 66.273956,107.882454 70.419296,107.998383 
	C72.404846,107.963310 74.063789,107.887581 76.064262,107.968697 
	C81.062462,107.455330 85.719116,106.785118 90.375778,106.114906 
z"/>
<path fill="#AFA59A" opacity="1.000000" stroke="none" 
	d="
M105.010384,63.896996 
	C106.809364,64.846436 108.608345,65.795876 110.706467,66.915184 
	C111.007500,71.680496 111.009392,76.275948 111.016251,81.316086 
	C109.562431,82.453407 108.103645,83.146034 106.325272,83.569550 
	C105.810234,80.540100 105.614777,77.779762 105.385139,74.655891 
	C105.249985,73.816124 105.149010,73.339882 105.035751,72.420181 
	C105.019112,69.283478 105.014748,66.590240 105.010384,63.896996 
z"/>
<path fill="#AFA59A" opacity="1.000000" stroke="none" 
	d="
M32.999138,66.108078 
	C34.204865,65.796684 35.218811,65.887840 36.824409,66.175003 
	C37.513481,71.287575 37.631378,76.204002 37.665779,81.121010 
	C37.668278,81.478317 37.064491,81.839882 36.742584,82.199471 
	C36.021652,82.084839 35.300713,81.970207 34.215664,81.897873 
	C30.374105,77.008774 32.023716,71.730392 32.999138,66.108078 
z"/>
<path fill="#F6F5F3" opacity="1.000000" stroke="none" 
	d="
M69.033775,41.077873 
	C71.415657,41.068394 73.797539,41.058907 76.754898,41.371105 
	C80.463776,43.836491 83.597176,45.980194 86.918732,48.416336 
	C88.717506,51.806110 90.328117,54.903446 91.830902,58.295532 
	C91.160500,59.445065 90.597931,60.299850 89.608994,61.104050 
	C86.462555,61.393078 83.742470,61.732697 80.625092,62.067680 
	C75.146980,63.897831 70.058823,63.874023 64.559097,62.060326 
	C61.094845,61.697010 58.035332,61.396729 54.706970,60.836746 
	C54.983864,57.729233 55.529606,54.881420 56.330044,51.824371 
	C60.734421,48.102715 64.884094,44.590294 69.033775,41.077873 
z"/>
<path fill="#B4ABA1" opacity="1.000000" stroke="none" 
	d="
M68.789070,40.792137 
	C64.884094,44.590294 60.734421,48.102715 55.955235,51.817760 
	C53.485394,53.470211 51.583904,54.850086 49.822510,56.390190 
	C48.172977,57.832493 46.671833,59.444504 45.105385,60.981831 
	C43.791431,52.564259 49.003498,47.366993 54.652290,42.085052 
	C56.772583,41.869629 58.608246,41.923279 60.414528,41.718166 
	C63.135258,41.409206 65.835442,40.919353 68.789070,40.792137 
z"/>
<path fill="#B4ABA1" opacity="1.000000" stroke="none" 
	d="
M86.730576,48.123901 
	C83.597176,45.980194 80.463776,43.836491 77.127899,41.431862 
	C78.714775,41.095913 80.549126,40.736660 82.283112,41.011246 
	C85.010132,41.443081 87.669556,42.301754 90.780197,42.965904 
	C94.197601,47.055298 97.192413,51.158489 99.828308,55.605824 
	C97.846649,54.667160 96.335800,53.196735 94.574448,52.146374 
	C92.055893,50.644455 89.354111,49.449783 86.730576,48.123901 
z"/>
<path fill="#B4ABA1" opacity="1.000000" stroke="none" 
	d="
M70.092682,107.957726 
	C66.273956,107.882454 62.455231,107.807190 58.308029,107.869911 
	C51.994022,103.935295 46.136795,99.760895 45.436462,91.428741 
	C47.000904,92.312653 48.066620,93.770157 49.477997,94.706787 
	C52.307419,96.584496 55.325787,98.177498 58.542740,100.054443 
	C62.577103,102.799828 66.334892,105.378777 70.092682,107.957726 
z"/>
<path fill="#B4ABA1" opacity="1.000000" stroke="none" 
	d="
M36.967186,82.465866 
	C37.064491,81.839882 37.668278,81.478317 37.665779,81.121010 
	C37.631378,76.204002 37.513481,71.287575 37.111221,66.105133 
	C39.313793,64.622650 41.821209,63.406048 44.658653,62.475685 
	C44.697498,65.265869 44.406319,67.769806 43.885231,70.497910 
	C41.010117,72.201912 38.600643,73.743118 42.051125,77.235336 
	C42.348736,80.139198 42.664886,82.622055 42.981041,85.104919 
	C41.051289,84.314034 39.121540,83.523148 36.967186,82.465866 
z"/>
<path fill="#B8B0A7" opacity="1.000000" stroke="none" 
	d="
M43.213036,85.381546 
	C42.664886,82.622055 42.348736,80.139198 42.378120,77.320557 
	C44.158222,77.963776 45.592789,78.942780 47.018547,80.334122 
	C47.190159,85.789490 48.690022,90.026299 53.983307,92.344177 
	C55.474369,95.086021 56.870266,97.487015 58.266163,99.888016 
	C55.325787,98.177498 52.307419,96.584496 49.477997,94.706787 
	C48.066620,93.770157 47.000904,92.312653 45.442528,91.051514 
	C44.552486,89.227570 43.998760,87.442871 43.213036,85.381546 
z"/>
<path fill="#B8B0A7" opacity="1.000000" stroke="none" 
	d="
M105.419312,75.019424 
	C105.614777,77.779762 105.810234,80.540100 106.009438,83.712143 
	C102.266151,85.487053 100.979347,87.982674 100.582771,92.117462 
	C100.004364,98.147995 95.816536,102.454063 90.676712,106.027191 
	C85.719116,106.785118 81.062462,107.455330 76.283234,107.706825 
	C77.798859,106.193939 79.574760,105.258331 81.050308,103.976883 
	C86.184952,99.517654 92.823753,95.853134 90.962456,86.991196 
	C92.565163,84.064095 93.841698,81.338264 95.496033,78.728577 
	C99.055656,77.569611 102.237488,76.294518 105.419312,75.019424 
z"/>
<path fill="#B8B0A7" opacity="1.000000" stroke="none" 
	d="
M86.918732,48.416336 
	C89.354111,49.449783 92.055893,50.644455 94.574448,52.146374 
	C96.335800,53.196735 97.846649,54.667160 99.835693,55.985485 
	C101.770882,58.400791 99.611313,62.970974 104.769043,63.640583 
	C105.014748,66.590240 105.019112,69.283478 104.718857,72.315994 
	C102.278542,71.396408 100.142845,70.137550 98.003983,68.492706 
	C97.368423,63.905285 96.684036,59.735050 91.938728,58.000782 
	C90.328117,54.903446 88.717506,51.806110 86.918732,48.416336 
z"/>
<path fill="#BBB3AA" opacity="1.000000" stroke="none" 
	d="
M44.115139,70.273743 
	C44.406319,67.769806 44.697498,65.265869 44.981766,62.336430 
	C44.974854,61.910931 45.017281,61.443390 45.061333,61.212608 
	C46.671833,59.444504 48.172977,57.832493 49.822510,56.390190 
	C51.583904,54.850086 53.485394,53.470211 55.700539,52.027000 
	C55.529606,54.881420 54.983864,57.729233 54.670784,61.187874 
	C53.555096,64.664505 52.206745,67.530304 50.536377,70.227585 
	C48.181282,70.130623 46.148212,70.202187 44.115139,70.273743 
z"/>
<path fill="#F6F5F3" opacity="1.000000" stroke="none" 
	d="
M90.636284,87.192474 
	C92.823753,95.853134 86.184952,99.517654 81.050308,103.976883 
	C79.574760,105.258331 77.798859,106.193939 75.941696,107.549988 
	C74.063789,107.887581 72.404846,107.963310 70.419296,107.998383 
	C66.334892,105.378777 62.577103,102.799828 58.542740,100.054443 
	C56.870266,97.487015 55.474369,95.086021 54.021008,91.941986 
	C53.970474,90.120583 53.977409,89.042213 54.402546,87.931465 
	C58.189365,87.469261 61.557980,87.039444 65.302422,86.559555 
	C71.183746,84.068672 76.608177,85.575920 82.474693,86.895660 
	C85.486694,87.028091 88.061493,87.110283 90.636284,87.192474 
z"/>
<path fill="#F6F5F3" opacity="1.000000" stroke="none" 
	d="
M98.007149,68.878700 
	C100.142845,70.137550 102.278542,71.396408 104.731140,72.759460 
	C105.149010,73.339882 105.249985,73.816124 105.385147,74.655891 
	C102.237488,76.294518 99.055656,77.569611 95.423248,78.429321 
	C93.267723,75.906563 90.947075,73.881042 94.343025,70.965179 
	C95.754402,70.157494 96.880775,69.518097 98.007149,68.878700 
z"/>
<path fill="#CCC8C2" opacity="1.000000" stroke="none" 
	d="
M82.037476,86.845421 
	C76.608177,85.575920 71.183746,84.068672 65.309914,86.213806 
	C63.881325,84.951317 62.910770,83.853340 61.737904,83.051186 
	C60.301460,82.068771 58.695621,81.334030 58.327232,81.131683 
	C59.013641,76.948601 59.491001,74.039467 60.339058,71.082855 
	C64.515350,70.196266 62.760269,68.020638 62.242760,66.000717 
	C63.374783,64.667847 64.169312,63.395603 64.963844,62.123356 
	C70.058823,63.874023 75.146980,63.897831 80.655594,62.399529 
	C81.742027,63.893917 82.400658,65.051826 83.008209,66.538460 
	C81.449371,70.105949 83.079720,71.044586 86.014603,71.424179 
	C86.309845,73.610146 86.599594,75.403015 86.528336,77.155243 
	C81.018272,77.474609 81.698112,79.867935 83.845894,83.045670 
	C83.036568,84.421776 82.537025,85.633598 82.037476,86.845421 
M71.813507,68.183441 
	C67.920082,69.440735 65.342575,71.706856 66.755577,76.145737 
	C67.874161,79.659729 72.667992,81.766380 75.552147,79.716072 
	C77.243828,78.513474 78.719963,75.802551 78.755775,73.743370 
	C78.817635,70.186356 76.198570,68.264122 71.813507,68.183441 
z"/>
<path fill="#C3BEB6" opacity="1.000000" stroke="none" 
	d="
M64.559097,62.060326 
	C64.169312,63.395603 63.374783,64.667847 61.909721,65.942291 
	C59.978535,66.128944 58.717884,66.313393 57.457230,66.497841 
	C58.294273,68.042007 59.131317,69.586174 59.968365,71.130341 
	C59.491001,74.039467 59.013641,76.948601 58.327232,81.131683 
	C58.695621,81.334030 60.301460,82.068771 61.737904,83.051186 
	C62.910770,83.853340 63.881325,84.951317 64.934090,86.263878 
	C61.557980,87.039444 58.189365,87.469261 54.403023,87.540581 
	C52.955631,84.038155 51.925964,80.894226 51.070255,77.462341 
	C54.601227,74.716545 51.755646,72.611778 50.858398,70.396103 
	C52.206745,67.530304 53.555096,64.664505 54.939632,61.447578 
	C58.035332,61.396729 61.094845,61.697010 64.559097,62.060326 
z"/>
<path fill="#C3BEB6" opacity="1.000000" stroke="none" 
	d="
M86.889336,77.195877 
	C86.599594,75.403015 86.309845,73.610146 86.308952,71.226883 
	C86.918716,69.166092 87.239624,67.695694 87.560532,66.225304 
	C86.060120,66.220116 84.559700,66.214920 83.059288,66.209732 
	C82.400658,65.051826 81.742027,63.893917 81.052895,62.404163 
	C83.742470,61.732697 86.462555,61.393078 89.645798,61.452366 
	C91.425316,64.945335 92.741669,68.039406 94.058022,71.133469 
	C90.947075,73.881042 93.267723,75.906563 95.045456,78.313187 
	C93.841698,81.338264 92.565163,84.064095 90.962456,86.991196 
	C88.061493,87.110283 85.486694,87.028091 82.474686,86.895660 
	C82.537025,85.633598 83.036568,84.421776 84.223907,83.077248 
	C90.132393,82.597549 87.786644,79.647568 86.889336,77.195877 
z"/>
<path fill="#BBB3AA" opacity="1.000000" stroke="none" 
	d="
M94.343025,70.965179 
	C92.741669,68.039406 91.425316,64.945335 90.072159,61.502953 
	C90.597931,60.299850 91.160500,59.445065 91.830902,58.295532 
	C96.684036,59.735050 97.368423,63.905285 98.003983,68.492706 
	C96.880775,69.518097 95.754402,70.157494 94.343025,70.965179 
z"/>
<path fill="#F6F5F3" opacity="1.000000" stroke="none" 
	d="
M50.536377,70.227585 
	C51.755646,72.611778 54.601227,74.716545 50.771225,77.577194 
	C49.207939,78.627274 48.117649,79.274529 47.027355,79.921783 
	C45.592789,78.942780 44.158222,77.963776 42.396660,76.899551 
	C38.600643,73.743118 41.010117,72.201912 43.885231,70.497910 
	C46.148212,70.202187 48.181282,70.130623 50.536377,70.227585 
z"/>
<path fill="#BBB3AA" opacity="1.000000" stroke="none" 
	d="
M47.018547,80.334122 
	C48.117649,79.274529 49.207939,78.627274 50.597267,77.865158 
	C51.925964,80.894226 52.955631,84.038155 53.984825,87.572960 
	C53.977409,89.042213 53.970474,90.120583 53.925842,91.601135 
	C48.690022,90.026299 47.190159,85.789490 47.018547,80.334122 
z"/>
<path fill="#F6F5F3" opacity="1.000000" stroke="none" 
	d="
M72.193649,68.108154 
	C76.198570,68.264122 78.817635,70.186356 78.755775,73.743370 
	C78.719963,75.802551 77.243828,78.513474 75.552147,79.716072 
	C72.667992,81.766380 67.874161,79.659729 66.755577,76.145737 
	C65.342575,71.706856 67.920082,69.440735 72.193649,68.108154 
z"/>
<path fill="#F6F5F3" opacity="1.000000" stroke="none" 
	d="
M86.528336,77.155243 
	C87.786644,79.647568 90.132393,82.597549 84.533684,82.912964 
	C81.698112,79.867935 81.018272,77.474609 86.528336,77.155243 
z"/>
<path fill="#F6F5F3" opacity="1.000000" stroke="none" 
	d="
M83.008209,66.538460 
	C84.559700,66.214920 86.060120,66.220116 87.560532,66.225304 
	C87.239624,67.695694 86.918716,69.166092 86.303459,70.833771 
	C83.079720,71.044586 81.449371,70.105949 83.008209,66.538460 
z"/>
<path fill="#F6F5F3" opacity="1.000000" stroke="none" 
	d="
M60.339058,71.082855 
	C59.131317,69.586174 58.294273,68.042007 57.457230,66.497841 
	C58.717884,66.313393 59.978535,66.128944 61.572231,66.002914 
	C62.760269,68.020638 64.515350,70.196266 60.339058,71.082855 
z"/>
</svg>