<svg xmlns="http://www.w3.org/2000/svg" viewBox="0 0 24 24" id="researchgate"><path d="M9.281 13.938c-1.033 0-1.914-.268-1.929-.272a.5.5 0 1 1 .297-.955c.543.169 2.302.497 3.22-.179.424-.314.631-.815.631-1.532 0-.611-.178-1.041-.545-1.314-.885-.663-2.692-.329-3.313-.144a.501.501 0 0 1-.284-.959c.11-.034 2.732-.792 4.195.301.629.469.947 1.181.947 2.116 0 1.043-.35 1.829-1.039 2.336-.63.465-1.444.602-2.18.602z"></path><path d="M7.5 18a.5.5 0 0 1-.5-.5V9.062a.5.5 0 0 1 1 0V17.5a.5.5 0 0 1-.5.5z"></path><path d="M13.5 18.023c-1.647 0-2.233-.846-3.65-2.89-1.005-1.448-2.191-1.215-2.241-1.205a.508.508 0 0 1-.594-.38.498.498 0 0 1 .37-.595c.077-.02 1.88-.419 3.276 1.595 1.417 2.045 1.753 2.475 2.839 2.475a.5.5 0 0 1 0 1zM7.125 9.58c-.25 0-.511-.027-.764-.1a.5.5 0 1 1 .278-.961c.62.18 1.454-.095 1.462-.098a.504.504 0 0 1 .634.312.501.501 0 0 1-.313.636 4.39 4.39 0 0 1-1.297.211zM8.5 18h-2a.5.5 0 0 1 0-1h2a.5.5 0 0 1 0 1zm5-8.5A.5.5 0 0 1 13 9V7c0-1.103.897-2 2-2s2 .897 2 2a.5.5 0 0 1-1 0 1.001 1.001 0 0 0-2 0v2a.5.5 0 0 1-.5.5z"></path><path d="M15 11c-1.103 0-2-.897-2-2a.5.5 0 0 1 1 0 1.001 1.001 0 0 0 2 .008h-.5a.5.5 0 0 1 0-1h.979a.5.5 0 0 1 .5.479l.021.492A2.007 2.007 0 0 1 15 11z"></path><path d="M23.5 24H.5a.5.5 0 0 1-.5-.5V.5A.5.5 0 0 1 .5 0h23a.5.5 0 0 1 .5.5v23a.5.5 0 0 1-.5.5zM1 23h22V1H1v22z"></path></svg>