<svg version="1.1" id="Layer_1" xmlns="http://www.w3.org/2000/svg" xmlns:xlink="http://www.w3.org/1999/xlink" x="0px" y="0px"
	 width="100%" viewBox="0 0 800 500" enable-background="new 0 0 800 500" xml:space="preserve">
<path fill="#FEFEFE" opacity="1.000000" stroke="none" 
	d="
M441.000000,501.000000 
	C294.000000,501.000000 147.500000,501.000000 1.000000,501.000000 
	C1.000000,334.333344 1.000000,167.666672 1.000000,1.000000 
	C267.666656,1.000000 534.333313,1.000000 801.000000,1.000000 
	C801.000000,167.666672 801.000000,334.333344 801.000000,501.000000 
	C681.166687,501.000000 561.333313,501.000000 441.000000,501.000000 
M187.924622,194.196609 
	C190.241257,194.198410 192.557999,194.215912 194.874512,194.199448 
	C210.579056,194.087784 226.283569,193.968979 242.848846,194.144318 
	C246.174744,194.791443 246.248245,192.679550 246.243256,190.295166 
	C246.218903,178.643860 246.267426,166.992432 246.257523,155.341080 
	C246.256317,153.924988 246.058197,152.509048 245.957306,151.172012 
	C188.609512,151.172012 131.785904,151.172012 74.602974,151.172012 
	C74.602974,164.809204 74.559227,178.107971 74.706032,191.404617 
	C74.715347,192.249084 76.205750,193.077164 77.917961,194.147568 
	C96.276352,194.074966 114.634743,194.002350 133.351547,194.686920 
	C133.490570,196.326218 133.750046,197.965439 133.751083,199.604828 
	C133.781906,248.388763 133.787140,297.172729 133.796356,345.956665 
	C133.796661,347.567749 133.796402,349.178833 133.796402,350.925110 
	C151.443985,350.925110 168.648483,350.925110 186.184326,350.925110 
	C186.184326,348.951416 186.183914,347.321594 186.184372,345.691772 
	C186.198395,296.907806 186.204330,248.123825 186.259262,199.339905 
	C186.261261,197.563461 186.744415,195.787567 187.924622,194.196609 
M669.535095,297.592163 
	C668.471008,298.703430 667.606201,300.361237 666.309326,300.833893 
	C659.769897,303.217346 653.244019,305.852173 646.482666,307.373901 
	C622.633118,312.741608 597.675964,301.727142 586.155945,281.187012 
	C573.620544,258.836426 576.338257,229.792450 592.829529,212.292419 
	C610.755981,193.269455 632.533386,190.202850 656.522705,197.720169 
	C668.063660,201.336655 678.269165,207.519211 687.420715,216.099167 
	C697.544434,203.629593 707.357666,191.542435 717.445435,179.117157 
	C715.644287,177.630356 714.325684,176.395355 712.866272,175.358459 
	C674.025574,147.762177 632.031372,141.408829 587.476135,158.517029 
	C546.392517,174.292221 522.580017,211.701614 524.565002,257.213104 
	C526.348267,298.100128 551.477844,333.338257 592.486816,347.054565 
	C635.737549,361.520630 675.783264,351.427582 713.699097,328.831268 
	C714.216125,328.523163 714.330811,327.539978 714.828247,326.080170 
	C714.838196,301.665131 714.878052,277.250000 714.772827,252.835449 
	C714.767395,251.573837 713.521790,250.317581 711.969604,248.801025 
	C699.326355,248.912094 686.683105,249.023163 673.657959,249.067093 
	C673.657959,249.067093 673.273376,249.116684 672.621338,248.812271 
	C671.722412,249.199921 670.823547,249.587570 669.632935,250.786072 
	C669.701965,252.212265 669.770935,253.638474 669.562500,255.673035 
	C669.657898,256.097870 669.753296,256.522736 669.640198,257.872284 
	C669.714111,270.905548 669.787964,283.938843 669.535095,297.592163 
M476.430481,351.260468 
	C477.876587,351.171021 479.322662,351.081573 480.746674,350.993500 
	C480.746674,284.130127 480.746674,217.608887 480.746674,151.212921 
	C463.268311,151.212921 446.197174,151.212921 428.650543,151.212921 
	C428.650543,178.333725 428.650543,205.086105 428.650543,231.995728 
	C401.649506,231.995728 375.132690,231.995728 348.120972,231.995728 
	C348.120972,204.810562 348.120972,178.070450 348.120972,151.088989 
	C330.552399,151.088989 313.481934,151.088989 296.173187,151.088989 
	C296.173187,217.855865 296.173187,284.379303 296.173187,350.993805 
	C313.592163,350.993805 330.670807,350.993805 348.316040,350.993805 
	C348.316040,325.452667 348.316040,300.232422 348.316040,274.840454 
	C375.406464,274.840454 401.925751,274.840454 428.977325,274.840454 
	C428.977325,300.503662 428.977325,325.729218 428.977325,351.255707 
	C444.820221,351.255707 460.130035,351.255707 476.430481,351.260468 
z"/>
<path fill="#1E1F1B" opacity="1.000000" stroke="none" 
	d="
M475.935150,351.258087 
	C460.130035,351.255707 444.820221,351.255707 428.977325,351.255707 
	C428.977325,325.729218 428.977325,300.503662 428.977325,274.840454 
	C401.925751,274.840454 375.406464,274.840454 348.316040,274.840454 
	C348.316040,300.232422 348.316040,325.452667 348.316040,350.993805 
	C330.670807,350.993805 313.592163,350.993805 296.173187,350.993805 
	C296.173187,284.379303 296.173187,217.855865 296.173187,151.088989 
	C313.481934,151.088989 330.552399,151.088989 348.120972,151.088989 
	C348.120972,178.070450 348.120972,204.810562 348.120972,231.995728 
	C375.132690,231.995728 401.649506,231.995728 428.650543,231.995728 
	C428.650543,205.086105 428.650543,178.333725 428.650543,151.212921 
	C446.197174,151.212921 463.268311,151.212921 480.746674,151.212921 
	C480.746674,217.608887 480.746674,284.130127 480.746674,350.993500 
	C479.322662,351.081573 477.876587,351.171021 475.935150,351.258087 
z"/>
<path fill="#1F1F1C" opacity="1.000000" stroke="none" 
	d="
M669.924683,249.975220 
	C670.823547,249.587570 671.722412,249.199921 672.933960,249.256683 
	C673.511047,249.512146 673.775452,249.323196 674.039856,249.134247 
	C686.683105,249.023163 699.326355,248.912094 712.441406,249.464264 
	C712.940491,273.988861 712.934082,297.850372 713.065369,321.711151 
	C713.074829,323.434235 714.087219,325.151794 714.633301,326.871887 
	C714.330811,327.539978 714.216125,328.523163 713.699097,328.831268 
	C675.783264,351.427582 635.737549,361.520630 592.486816,347.054565 
	C551.477844,333.338257 526.348267,298.100128 524.565002,257.213104 
	C522.580017,211.701614 546.392517,174.292221 587.476135,158.517029 
	C632.031372,141.408829 674.025574,147.762177 712.866272,175.358459 
	C714.325684,176.395355 715.644287,177.630356 717.445435,179.117157 
	C707.357666,191.542435 697.544434,203.629593 687.420715,216.099167 
	C678.269165,207.519211 668.063660,201.336655 656.522705,197.720169 
	C632.533386,190.202850 610.755981,193.269455 592.829529,212.292419 
	C576.338257,229.792450 573.620544,258.836426 586.155945,281.187012 
	C597.675964,301.727142 622.633118,312.741608 646.482666,307.373901 
	C653.244019,305.852173 659.769897,303.217346 666.309326,300.833893 
	C667.606201,300.361237 668.471008,298.703430 670.031494,297.024628 
	C670.655823,283.821198 670.796692,271.185333 670.865784,258.549133 
	C670.868652,258.017151 670.202881,257.481506 669.848633,256.947571 
	C669.753296,256.522736 669.657898,256.097870 670.002075,255.155701 
	C670.269348,253.083984 670.096985,251.529602 669.924683,249.975220 
z"/>
<path fill="#1E1E1B" opacity="1.000000" stroke="none" 
	d="
M77.007133,193.912872 
	C76.205750,193.077164 74.715347,192.249084 74.706032,191.404617 
	C74.559227,178.107971 74.602974,164.809204 74.602974,151.172012 
	C131.785904,151.172012 188.609512,151.172012 245.957306,151.172012 
	C246.058197,152.509048 246.256317,153.924988 246.257523,155.341080 
	C246.267426,166.992432 246.218903,178.643860 246.243256,190.295166 
	C246.248245,192.679550 246.174744,194.791443 242.306824,193.616913 
	C240.911407,192.728928 240.059235,192.057190 239.204422,192.053848 
	C222.922470,191.989960 206.639923,191.965195 190.358688,192.089706 
	C189.235413,192.098297 188.121567,193.342056 187.003326,194.011414 
	C186.744415,195.787567 186.261261,197.563461 186.259262,199.339905 
	C186.204330,248.123825 186.198395,296.907806 186.184372,345.691772 
	C186.183914,347.321594 186.184326,348.951416 186.184326,350.925110 
	C168.648483,350.925110 151.443985,350.925110 133.796402,350.925110 
	C133.796402,349.178833 133.796661,347.567749 133.796356,345.956665 
	C133.787140,297.172729 133.781906,248.388763 133.751083,199.604828 
	C133.750046,197.965439 133.490570,196.326218 133.064941,193.921234 
	C132.105591,192.776489 131.434097,192.068985 130.759903,192.066376 
	C113.820236,192.000702 96.880081,191.977417 79.940910,192.086166 
	C78.959114,192.092453 77.984886,193.276779 77.007133,193.912872 
M136.410019,192.483139 
	C136.410019,192.483139 136.521194,192.417053 136.410019,192.483139 
z"/>
<path fill="#11110F" opacity="1.000000" stroke="none" 
	d="
M714.730774,326.476013 
	C714.087219,325.151794 713.074829,323.434235 713.065369,321.711151 
	C712.934082,297.850372 712.940491,273.988861 712.883423,249.593170 
	C713.521790,250.317581 714.767395,251.573837 714.772827,252.835449 
	C714.878052,277.250000 714.838196,301.665131 714.730774,326.476013 
z"/>
<path fill="#12130F" opacity="1.000000" stroke="none" 
	d="
M77.462547,194.030212 
	C77.984886,193.276779 78.959114,192.092453 79.940910,192.086166 
	C96.880081,191.977417 113.820236,192.000702 130.759903,192.066376 
	C131.434097,192.068985 132.105591,192.776489 132.885742,193.542664 
	C114.634743,194.002350 96.276352,194.074966 77.462547,194.030212 
z"/>
<path fill="#12130E" opacity="1.000000" stroke="none" 
	d="
M187.463974,194.104019 
	C188.121567,193.342056 189.235413,192.098297 190.358688,192.089706 
	C206.639923,191.965195 222.922470,191.989960 239.204422,192.053848 
	C240.059235,192.057190 240.911407,192.728928 241.876450,193.470978 
	C226.283569,193.968979 210.579056,194.087784 194.874512,194.199448 
	C192.557999,194.215912 190.241257,194.198410 187.463974,194.104019 
z"/>
<path fill="#050505" opacity="1.000000" stroke="none" 
	d="
M669.744385,257.409912 
	C670.202881,257.481506 670.868652,258.017151 670.865784,258.549133 
	C670.796692,271.185333 670.655823,283.821198 670.194885,296.714600 
	C669.787964,283.938843 669.714111,270.905548 669.744385,257.409912 
z"/>
<path fill="#050505" opacity="1.000000" stroke="none" 
	d="
M669.778809,250.380646 
	C670.096985,251.529602 670.269348,253.083984 670.140869,254.851517 
	C669.770935,253.638474 669.701965,252.212265 669.778809,250.380646 
z"/>
<path fill="#11110F" opacity="1.000000" stroke="none" 
	d="
M673.848877,249.100677 
	C673.775452,249.323196 673.511047,249.512146 673.260010,249.408890 
	C673.273376,249.116684 673.657959,249.067093 673.848877,249.100677 
z"/>
<path fill="#12130F" opacity="1.000000" stroke="none" 
	d="
M136.465607,192.450104 
	C136.521194,192.417053 136.410019,192.483139 136.465607,192.450104 
z"/>
</svg>